<?xml version="1.0" encoding="UTF-8" standalone="no"?>
<svg
   xmlns:dc="http://purl.org/dc/elements/1.1/"
   xmlns:cc="http://creativecommons.org/ns#"
   xmlns:rdf="http://www.w3.org/1999/02/22-rdf-syntax-ns#"
   xmlns:svg="http://www.w3.org/2000/svg"
   xmlns="http://www.w3.org/2000/svg"
   width="33.576302mm"
   height="17.058216mm"
   viewBox="0 0 33.576301 17.058216"
   version="1.1"
   id="svg8">
  <defs
     id="defs2" />
  <metadata
     id="metadata5">
    <rdf:RDF>
      <cc:Work
         rdf:about="">
        <dc:format>image/svg+xml</dc:format>
        <dc:type
           rdf:resource="http://purl.org/dc/dcmitype/StillImage" />
        <dc:title></dc:title>
      </cc:Work>
    </rdf:RDF>
  </metadata>
  <g
     id="layer1"
     transform="translate(-13.984818,-12.04595)">
    <path
       d="m 16.639117,29.104167 h 1.016 l 1.4986,-4.6101 1.5113,4.6101 h 1.0033 l 2.6924,-6.987167 h -0.9144 l -2.2606,5.856867 -1.6383,-4.9657 h -0.7747 l -1.6383,4.9657 L 14.924618,22.117 h -0.9398 z"
       style="font-style:normal;font-variant:normal;font-weight:normal;font-stretch:normal;font-size:12.7px;line-height:1.25;font-family:'URW Gothic';-inkscape-font-specification:'URW Gothic';letter-spacing:-0.515938px;stroke-width:0.264583"
       id="path897" />
    <path
       d="m 24.665517,29.104167 h 0.9398 V 22.117 h -0.9398 z"
       style="font-style:normal;font-variant:normal;font-weight:normal;font-stretch:normal;font-size:12.7px;line-height:1.25;font-family:'URW Gothic';-inkscape-font-specification:'URW Gothic';letter-spacing:-0.515938px;stroke-width:0.264583"
       id="path899" />
    <path
       d="m 26.0731,29.104167 h 0.9398 v -3.8227 c 0,-0.7747 0.1016,-1.1811 0.3683,-1.5748 0.3683,-0.5334 1.016,-0.8509 1.7526,-0.8509 0.6858,0 1.3081,0.2794 1.6891,0.7493 0.3302,0.4318 0.4572,0.9398 0.4572,1.8542 v 3.6449 h 0.9398 v -3.6449 c 0,-1.1684 -0.1651,-1.7907 -0.6096,-2.3876 -0.5461,-0.6985 -1.3843,-1.119717 -2.3622,-1.119717 -0.9144,0 -1.651,0.3429 -2.2352,1.0668 v -0.9017 h -0.9398 z"
       style="font-style:normal;font-variant:normal;font-weight:normal;font-stretch:normal;font-size:12.7px;line-height:1.25;font-family:'URW Gothic';-inkscape-font-specification:'URW Gothic';letter-spacing:-0.515938px;stroke-width:0.264583"
       id="path901" />
    <path
       d="m 47.561118,25.776767 c 0,-0.9525 -0.127,-1.5367 -0.4699,-2.1463 -0.6223,-1.1176 -1.8288,-1.8034 -3.1623,-1.8034 -2.0193,0 -3.5941,1.5875 -3.5941,3.6068 0,2.0574 1.6129,3.6703 3.6703,3.6703 1.5113,0 2.8702,-0.9779 3.3782,-2.4511 h -0.9779 c -0.3937,0.9525 -1.3716,1.5875 -2.4257,1.5875 -1.4351,0 -2.6289,-1.0922 -2.7051,-2.4638 z m -6.2611,-0.8509 c 0.254,-1.3335 1.3081,-2.2352 2.6289,-2.2352 1.3462,0 2.3622,0.8382 2.6924,2.2352 z"
       style="font-style:normal;font-variant:normal;font-weight:normal;font-stretch:normal;font-size:12.7px;line-height:1.25;font-family:'URW Gothic';-inkscape-font-specification:'URW Gothic';letter-spacing:-0.515938px;stroke-width:0.264583"
       id="path905" />
    <path
       d="m 35.546917,14.31925 h -0.9398 v 3.5687 c 0,0.8509 -0.127,1.3843 -0.4191,1.8161 -0.3937,0.5588 -1.016,0.8636 -1.7526,0.8636 -0.7747,0 -1.422399,-0.3175 -1.739899,-0.8763 -0.2159,-0.3556 -0.3302,-0.9144 -0.3302,-1.6256 v -3.7465 h -0.9398 v 3.7465 c 0,1.0414 0.1651,1.7399 0.5461,2.2606 0.5207,0.7239 1.3589,1.1049 2.400299,1.1049 1.0795,0 1.7653,-0.381 2.2352,-1.2446 v 1.2446 h 0.9398 z"
       style="font-style:normal;font-variant:normal;font-weight:normal;font-stretch:normal;font-size:12.7px;line-height:1.25;font-family:'URW Gothic';-inkscape-font-specification:'URW Gothic';stroke-width:0.264583"
       id="path933" />
    <path
       d="m 37.285083,21.43125 h 0.9398 v -6.2611 h 1.7272 v -0.8509 h -1.7272 c -0.0127,-1.1684 0.4445,-1.4097 1.7272,-1.4224 v -0.8509 c -1.7907,0 -2.6924,0.6604 -2.667,2.2733 h -1.0795 v 0.8509 h 1.0795 z"
       style="font-style:normal;font-variant:normal;font-weight:normal;font-stretch:normal;font-size:12.7px;line-height:1.25;font-family:'URW Gothic';-inkscape-font-specification:'URW Gothic';stroke-width:0.264583"
       id="path935" />
    <path
       d="m 39.963297,19.71895 h -0.9398 v 3.505117 c -0.6985,-0.9652 -1.4605,-1.397 -2.667,-1.397 -2.0828,0 -3.7338,1.55575 -3.7338,3.63855 0,2.0828 1.5875,3.63855 3.7338,3.63855 1.1811,0 1.9177,-0.381 2.667,-1.3843 v 1.3843 h 0.9398 z m -3.6068,2.971717 c 1.524,0 2.667,1.2065 2.667,2.77495 0,1.56845 -1.1303,2.77495 -2.667,2.77495 -1.5367,0 -2.7813,-1.22555 -2.7813,-2.77495 0,-1.5494 1.2573,-2.77495 2.7813,-2.77495 z"
       style="font-style:normal;font-variant:normal;font-weight:normal;font-stretch:normal;font-size:12.7px;line-height:1.25;font-family:'URW Gothic';-inkscape-font-specification:'URW Gothic';stroke-width:0.264583"
       id="path931-4" />
    <path
       style="opacity:1;fill:#004dff;fill-opacity:1;stroke:#0000fa;stroke-width:0;stroke-miterlimit:4;stroke-dasharray:none;stroke-opacity:1"
       id="path949"
       d="m 27.592331,19.2112 a 2.8369994,2.8369994 0 0 1 -1.964273,1.375399 L 25.135418,17.7927 Z" />
    <path
       style="fill:#01f8e9;fill-opacity:1;stroke:#0000fa;stroke-width:0;stroke-miterlimit:4;stroke-dasharray:none;stroke-opacity:1"
       id="path949-0"
       d="M 25.628058,20.586599 A 2.8369994,2.8369994 0 0 1 23.31183,19.965968 L 25.135418,17.7927 Z" />
    <path
       style="fill:#34c00c;fill-opacity:1;stroke:#0000fa;stroke-width:0;stroke-miterlimit:4;stroke-dasharray:none;stroke-opacity:1"
       id="path949-0-0"
       d="M 23.31183,19.965968 A 2.8369994,2.8369994 0 0 1 22.298419,17.7927 h 2.836999 z" />
    <path
       style="fill:#f8fd00;fill-opacity:1;stroke:#0000fa;stroke-width:0;stroke-miterlimit:4;stroke-dasharray:none;stroke-opacity:1"
       id="path949-0-0-6"
       d="M 22.298419,17.7927 A 2.8369994,2.8369994 0 0 1 23.31183,15.619432 L 25.135418,17.7927 Z" />
    <path
       style="fill:#ff9b00;fill-opacity:1;stroke:#0000fa;stroke-width:0;stroke-miterlimit:4;stroke-dasharray:none;stroke-opacity:1"
       id="path949-0-0-6-7"
       d="m 23.31183,15.619432 a 2.8369994,2.8369994 0 0 1 2.316228,-0.620631 l -0.49264,2.793899 z" />
    <path
       style="fill:#ff1400;fill-opacity:1;stroke:#0000fa;stroke-width:0;stroke-miterlimit:4;stroke-dasharray:none;stroke-opacity:1"
       id="path949-0-0-6-7-5"
       d="m 25.628058,14.998801 a 2.8369994,2.8369994 0 0 1 1.964273,1.375399 l -2.456913,1.4185 z" />
    <circle
       style="opacity:1;fill:#000000;stroke:#000000;stroke-width:0.499999"
       id="path895"
       cx="25.135418"
       cy="17.7927"
       r="0.26458332" />
    <path
       d="m 28.742217,14.31925 -0.9398,-2.5e-4 v 1.23215 c -0.6985,-0.9652 -1.4605,-1.397 -2.667,-1.397 -2.0828,0 -3.7338,1.55575 -3.7338,3.63855 0,2.0828 1.5875,3.63855 3.7338,3.63855 1.1811,0 1.9177,-0.381 2.667,-1.3843 v 1.3843 h 0.9398 z m -3.6068,0.6985 c 1.524,0 2.667,1.2065 2.667,2.77495 0,1.56845 -1.1303,2.77495 -2.667,2.77495 -1.5367,0 -2.7813,-1.22555 -2.7813,-2.77495 0,-1.5494 1.2573,-2.77495 2.7813,-2.77495 z"
       style="font-style:normal;font-variant:normal;font-weight:normal;font-stretch:normal;font-size:12.7px;line-height:1.25;font-family:'URW Gothic';-inkscape-font-specification:'URW Gothic';stroke-width:0.264583"
       id="path931" />
    <path
       style="fill:#000000;fill-opacity:1;stroke:#0000fa;stroke-width:0;stroke-miterlimit:4;stroke-dasharray:none;stroke-opacity:1"
       id="path949-0-0-6-7-5-6"
       d="m 27.52883,16.3742 a 2.8369994,2.8369994 0 0 1 0,2.837 l -2.456913,-1.4185 z" />
  </g>
</svg>
